<svg width="24" height="24" viewBox="0 0 24 24" fill="none" xmlns="http://www.w3.org/2000/svg">
<g clip-path="url(#clip0_142_158)">
<path d="M12.4099 2.08711C15.5067 2.08711 15.8734 2.10069 17.0912 2.15502C18.2231 2.20482 18.8342 2.39497 19.2417 2.55342C19.7805 2.76168 20.1698 3.01521 20.5727 3.41814C20.9802 3.82561 21.2292 4.21043 21.4375 4.74918C21.5959 5.15664 21.7861 5.77236 21.8359 6.89967C21.8902 8.12206 21.9038 8.48877 21.9038 11.5809C21.9038 14.6776 21.8902 15.0444 21.8359 16.2622C21.7861 17.3941 21.5959 18.0052 21.4375 18.4127C21.2292 18.9515 20.9757 19.3408 20.5727 19.7437C20.1653 20.1512 19.7805 20.4002 19.2417 20.6085C18.8342 20.7669 18.2185 20.9571 17.0912 21.0069C15.8688 21.0612 15.5021 21.0748 12.4099 21.0748C9.31324 21.0748 8.94653 21.0612 7.72867 21.0069C6.59684 20.9571 5.98565 20.7669 5.57819 20.6085C5.03943 20.4002 4.65008 20.1467 4.24715 19.7437C3.83968 19.3363 3.59068 18.9515 3.38242 18.4127C3.22397 18.0052 3.03382 17.3895 2.98402 16.2622C2.92969 15.0398 2.91611 14.6731 2.91611 11.5809C2.91611 8.48424 2.92969 8.11753 2.98402 6.89967C3.03382 5.76784 3.22397 5.15664 3.38242 4.74918C3.59068 4.21043 3.84421 3.82108 4.24715 3.41814C4.65461 3.01068 5.03943 2.76168 5.57819 2.55342C5.98565 2.39497 6.60137 2.20482 7.72867 2.15502C8.94653 2.10069 9.31324 2.08711 12.4099 2.08711ZM12.4099 0C9.26344 0 8.86956 0.013582 7.6336 0.0679102C6.40216 0.122238 5.55555 0.321441 4.82212 0.606664C4.057 0.905469 3.40959 1.29935 2.7667 1.94676C2.11929 2.58964 1.72542 3.23705 1.42661 3.99765C1.14139 4.7356 0.942185 5.57769 0.887856 6.80912C0.833528 8.04962 0.819946 8.4435 0.819946 11.59C0.819946 14.7365 0.833528 15.1304 0.887856 16.3663C0.942185 17.5978 1.14139 18.4444 1.42661 19.1778C1.72542 19.943 2.11929 20.5904 2.7667 21.2332C3.40959 21.8761 4.057 22.2745 4.81759 22.5688C5.55555 22.854 6.39763 23.0532 7.62907 23.1076C8.86504 23.1619 9.25891 23.1755 12.4054 23.1755C15.5519 23.1755 15.9458 23.1619 17.1818 23.1076C18.4132 23.0532 19.2598 22.854 19.9932 22.5688C20.7538 22.2745 21.4013 21.8761 22.0441 21.2332C22.687 20.5904 23.0854 19.943 23.3797 19.1824C23.6649 18.4444 23.8641 17.6023 23.9185 16.3709C23.9728 15.1349 23.9864 14.741 23.9864 11.5945C23.9864 8.44802 23.9728 8.05414 23.9185 6.81818C23.8641 5.58674 23.6649 4.74013 23.3797 4.0067C23.0945 3.23705 22.7006 2.58964 22.0532 1.94676C21.4103 1.30388 20.7629 0.905469 20.0023 0.611191C19.2643 0.325969 18.4223 0.126766 17.1908 0.0724375C15.9503 0.013582 15.5565 0 12.4099 0Z" fill="#10364D"/>
<path d="M12.41 5.63672C9.12315 5.63672 6.45654 8.30332 6.45654 11.5902C6.45654 14.877 9.12315 17.5436 12.41 17.5436C15.6969 17.5436 18.3635 14.877 18.3635 11.5902C18.3635 8.30332 15.6969 5.63672 12.41 5.63672ZM12.41 15.452C10.2776 15.452 8.54818 13.7226 8.54818 11.5902C8.54818 9.4578 10.2776 7.72835 12.41 7.72835C14.5424 7.72835 16.2718 9.4578 16.2718 11.5902C16.2718 13.7226 14.5424 15.452 12.41 15.452Z" fill="#10364D"/>
<path d="M19.9888 5.40113C19.9888 6.17078 19.364 6.79102 18.5989 6.79102C17.8292 6.79102 17.209 6.16625 17.209 5.40113C17.209 4.63148 17.8338 4.01123 18.5989 4.01123C19.364 4.01123 19.9888 4.636 19.9888 5.40113Z" fill="#10364D"/>
</g>
<defs>
<clipPath id="clip0_142_158">
<rect width="23.18" height="23.18" fill="white" transform="translate(0.819946)"/>
</clipPath>
</defs>
</svg>
