<svg width="114" height="50" viewBox="0 0 114 50" fill="none" xmlns="http://www.w3.org/2000/svg">
<path fill-rule="evenodd" clip-rule="evenodd" d="M49.045 45.332C52.5758 41.2126 58.0323 34.0957 62.9621 26.0932C65.3182 22.2685 67.5684 18.2188 69.4309 14.1812H71.6362L71.2858 44.6697L71.2477 47.9861L73.1126 45.2435L88.2857 22.9301V44.6812V48.0117L90.1203 45.232L104.786 23.0117V44.6812V47.9301L106.613 45.2435L113.286 35.4301V31.8734L106.786 41.4322V19.6812V18.6812H105.786H89.2857H88.7564L88.4588 19.1189L73.3238 41.3762L73.6363 14.1812H79.4524L80.119 12.1812H73.6593L73.7856 1.19266L71.8023 1C71.1556 4.51059 69.852 8.31094 68.1401 12.1812H65.0357L64.0357 14.1812H67.2228C65.489 17.8347 63.4324 21.5165 61.2593 25.0442C57.1507 31.7137 52.6696 37.7621 49.2857 41.9207V36.0145L61.0857 20.2812L62.2857 18.6812H60.2857H47.2857H46.7417L46.4461 19.1379L31.7857 41.7949V19.6812V18.6812H30.7857H24.7857H24.2417L23.9461 19.1379L9.28571 41.7949V19.6812V18.6812H8.28571H2.42856L0.999985 20.6812H7.28571V45.1812V48.5674L9.12528 45.7244L25.3297 20.6812H29.7857V45.1812V48.5674L31.6253 45.7244L47.2857 21.5219V35.3478V35.6812V44.1812V44.6812V47.3844L49.045 45.332ZM69.7857 12.1812H71.7857L72.2857 4.5C71.867 5.646 70.2832 11.021 69.7857 12.1812ZM90.2857 41.3506V20.6812H103.928L90.2857 41.3506ZM49.2857 32.6812L58.2857 20.6812H49.2857V32.6812ZM29.7857 10.8954V13.8478L31.7857 14.5145V11.7526L29.7857 10.8954Z" fill="black" stroke="black" stroke-width="0.5"/>
</svg>
