<svg width="24" height="24" viewBox="0 0 24 24" fill="none" xmlns="http://www.w3.org/2000/svg">
<path d="M21.1391 17.8027C21.1391 18.1327 21.0658 18.4718 20.9099 18.8018C20.7541 19.1318 20.5524 19.4435 20.2866 19.7368C19.8374 20.2318 19.3424 20.5893 18.7833 20.8185C18.2333 21.0477 17.6374 21.1668 16.9958 21.1668C16.0608 21.1668 15.0616 20.9468 14.0074 20.4977C12.9533 20.0485 11.8991 19.4435 10.8541 18.6827C9.79992 17.9127 8.80075 17.0602 7.84742 16.116C6.90325 15.1627 6.05075 14.1635 5.28992 13.1185C4.53825 12.0735 3.93325 11.0285 3.49325 9.99266C3.05325 8.94766 2.83325 7.9485 2.83325 6.99516C2.83325 6.37183 2.94325 5.776 3.16325 5.226C3.38325 4.66683 3.73159 4.1535 4.21742 3.69516C4.80409 3.11766 5.44575 2.8335 6.12409 2.8335C6.38075 2.8335 6.63742 2.8885 6.86659 2.9985C7.10492 3.1085 7.31575 3.2735 7.48075 3.51183L9.60742 6.50933C9.77242 6.7385 9.89158 6.94933 9.97408 7.151C10.0566 7.3435 10.1024 7.536 10.1024 7.71016C10.1024 7.93016 10.0383 8.15016 9.90992 8.361C9.79075 8.57183 9.61658 8.79183 9.39658 9.01183L8.69992 9.736C8.59908 9.83683 8.55325 9.956 8.55325 10.1027C8.55325 10.176 8.56242 10.2402 8.58075 10.3135C8.60825 10.3868 8.63575 10.4418 8.65409 10.4968C8.81909 10.7993 9.10325 11.1935 9.50658 11.6702C9.91908 12.1468 10.3591 12.6327 10.8358 13.1185C11.3308 13.6043 11.8074 14.0535 12.2933 14.466C12.7699 14.8693 13.1641 15.1443 13.4758 15.3093C13.5216 15.3277 13.5766 15.3552 13.6408 15.3827C13.7141 15.4102 13.7874 15.4193 13.8699 15.4193C14.0258 15.4193 14.1449 15.3643 14.2458 15.2635L14.9424 14.576C15.1716 14.3468 15.3916 14.1727 15.6024 14.0627C15.8133 13.9343 16.0241 13.8702 16.2533 13.8702C16.4274 13.8702 16.6108 13.9068 16.8124 13.9893C17.0141 14.0718 17.2249 14.191 17.4541 14.3468L20.4883 16.501C20.7266 16.666 20.8916 16.8585 20.9924 17.0877C21.0841 17.3168 21.1391 17.546 21.1391 17.8027Z" stroke="#171717" stroke-width="1.5" stroke-miterlimit="10"/>
<path d="M17.9583 9.25033C17.9583 8.70033 17.5275 7.85699 16.8858 7.16949C16.2992 6.53699 15.52 6.04199 14.75 6.04199" stroke="#171717" stroke-width="1.5" stroke-linecap="round" stroke-linejoin="round"/>
<path d="M21.1667 9.25016C21.1667 5.70266 18.2975 2.8335 14.75 2.8335" stroke="#171717" stroke-width="1.5" stroke-linecap="round" stroke-linejoin="round"/>
</svg>
