<svg width="13" height="14" viewBox="0 0 13 14" fill="none" xmlns="http://www.w3.org/2000/svg">
<path d="M6.48174 12.9818C3.27867 12.9818 0.675171 10.3783 0.675171 7.17522C0.675171 3.97216 3.27867 1.36865 6.48174 1.36865C9.68481 1.36865 12.2883 3.97216 12.2883 7.17522C12.2883 10.3783 9.68481 12.9818 6.48174 12.9818ZM6.48174 2.17887C3.727 2.17887 1.48539 4.42048 1.48539 7.17522C1.48539 9.92997 3.727 12.1716 6.48174 12.1716C9.23648 12.1716 11.4781 9.92997 11.4781 7.17522C11.4781 4.42048 9.23648 2.17887 6.48174 2.17887Z" fill="#171717"/>
<path d="M8.48571 9.29787C8.41549 9.29787 8.34527 9.28166 8.28045 9.23845L6.606 8.23918C6.19008 7.99071 5.8822 7.44516 5.8822 6.96443V4.74984C5.8822 4.52838 6.06585 4.34473 6.28731 4.34473C6.50877 4.34473 6.69242 4.52838 6.69242 4.74984V6.96443C6.69242 7.15889 6.85446 7.44516 7.02191 7.54239L8.69636 8.54166C8.89082 8.65509 8.95023 8.90356 8.8368 9.09801C8.75578 9.22765 8.62074 9.29787 8.48571 9.29787Z" fill="#171717"/>
</svg>
