<svg width="24" height="24" viewBox="0 0 24 24" fill="none" xmlns="http://www.w3.org/2000/svg">
<path d="M11.9999 21.8543C6.56409 21.8543 2.14575 17.436 2.14575 12.0002C2.14575 6.56433 6.56409 2.146 11.9999 2.146C17.4358 2.146 21.8541 6.56433 21.8541 12.0002C21.8541 17.436 17.4358 21.8543 11.9999 21.8543ZM11.9999 3.521C7.32492 3.521 3.52075 7.32516 3.52075 12.0002C3.52075 16.6752 7.32492 20.4793 11.9999 20.4793C16.6749 20.4793 20.4791 16.6752 20.4791 12.0002C20.4791 7.32516 16.6749 3.521 11.9999 3.521Z" fill="#171717"/>
<path d="M15.4008 15.6026C15.2816 15.6026 15.1624 15.5751 15.0524 15.5018L12.2108 13.8059C11.5049 13.3843 10.9824 12.4584 10.9824 11.6426V7.88428C10.9824 7.50844 11.2941 7.19678 11.6699 7.19678C12.0458 7.19678 12.3574 7.50844 12.3574 7.88428V11.6426C12.3574 11.9726 12.6324 12.4584 12.9166 12.6234L15.7583 14.3193C16.0883 14.5118 16.1891 14.9334 15.9966 15.2634C15.8591 15.4834 15.6299 15.6026 15.4008 15.6026Z" fill="#171717"/>
</svg>
