
<svg width="24" height="24" viewBox="0 0 24 24" fill="none" xmlns="http://www.w3.org/2000/svg">
<g clip-path="url(#clip0_142_157)">
<path d="M11.59 0C5.18907 0 0 5.18907 0 11.59C0 17.0252 3.74218 21.5861 8.79032 22.8388V15.1319H6.40046V11.59H8.79032V10.0638C8.79032 6.11906 10.5756 4.29062 14.4486 4.29062C15.1829 4.29062 16.4499 4.4348 16.9682 4.57851V7.78894C16.6947 7.7602 16.2195 7.74583 15.6293 7.74583C13.7291 7.74583 12.9947 8.4658 12.9947 10.3374V11.59H16.7805L16.13 15.1319H12.9947V23.0952C18.7336 22.4021 23.1805 17.5157 23.1805 11.59C23.18 5.18907 17.9909 0 11.59 0Z" fill="#10364D"/>
</g>
<defs>
<clipPath id="clip0_142_157">
<rect width="23.18" height="23.18" fill="white"/>
</clipPath>
</defs>
</svg>
