<svg width="11" height="15" viewBox="0 0 11 15" fill="none" xmlns="http://www.w3.org/2000/svg">
<g clip-path="url(#clip0_142_142)">
<path d="M5.52496 13.5157C5.3261 13.7201 5.15597 13.8873 5.02694 14.0112C4.89743 13.8845 4.72614 13.7131 4.52569 13.5037C4.06176 13.019 3.44389 12.3332 2.82697 11.5279C1.57616 9.8951 0.396647 7.85643 0.396647 6.03354C0.396647 3.35106 2.48323 1.20329 5.0242 1.20329C7.56516 1.20329 9.65175 3.35106 9.65175 6.03354C9.65175 7.90836 8.47107 9.94774 7.22234 11.5651C6.60589 12.3635 5.9885 13.0394 5.52496 13.5157Z" stroke="black" stroke-width="0.793294"/>
<path d="M7.68165 6.00007C7.68165 7.55072 6.47722 8.78074 5.02419 8.78074C3.57116 8.78074 2.36674 7.55072 2.36674 6.00007C2.36674 4.44942 3.57116 3.2194 5.02419 3.2194C6.47722 3.2194 7.68165 4.44942 7.68165 6.00007Z" stroke="black" stroke-width="0.793294"/>
</g>
<defs>
<clipPath id="clip0_142_142">
<rect width="10.0484" height="13.7504" fill="white" transform="translate(0 0.806641)"/>
</clipPath>
</defs>
</svg>
