<svg width="24" height="24" viewBox="0 0 24 24" fill="none" xmlns="http://www.w3.org/2000/svg">
<g clip-path="url(#clip0_340_64)">
<path d="M12.8991 21.2239C12.5415 21.5521 12.236 21.8203 12.0049 22.0185C11.773 21.8158 11.4655 21.5411 11.1054 21.2051C10.2757 20.4309 9.17137 19.336 8.06929 18.0511C6.96525 16.7639 5.87667 15.3012 5.06719 13.7919C4.25435 12.2762 3.75 10.7636 3.75 9.36277C3.75 5.20947 7.39105 1.75 12 1.75C16.609 1.75 20.25 5.20947 20.25 9.36277C20.25 10.8074 19.7436 12.3417 18.9321 13.8623C18.1232 15.3778 17.0356 16.8343 15.9326 18.1103C14.8315 19.3841 13.7281 20.463 12.8991 21.2239Z" stroke="black" stroke-width="1.5"/>
<path d="M16.7209 9.30962C16.7209 11.6521 14.6601 13.6432 12 13.6432C9.33985 13.6432 7.27905 11.6521 7.27905 9.30962C7.27905 6.96719 9.33985 4.97607 12 4.97607C14.6601 4.97607 16.7209 6.96719 16.7209 9.30962Z" stroke="black" stroke-width="1.5"/>
</g>
<defs>
<clipPath id="clip0_340_64">
<rect width="18" height="22" fill="white" transform="translate(3 1)"/>
</clipPath>
</defs>
</svg>
