<svg width="15" height="10" viewBox="0 0 15 10" fill="none" xmlns="http://www.w3.org/2000/svg">
<path fill-rule="evenodd" clip-rule="evenodd" d="M1.24401 0.942219C1.19767 1.00858 1.1706 1.08869 1.1706 1.17495V8.47533C1.1706 8.53831 1.18503 8.59802 1.21086 8.65148L5.64329 4.58474L1.24401 0.942219ZM1.36665 0.825861L7.40225 5.82322C7.49786 5.90239 7.63841 5.90239 7.73402 5.82322L13.8031 0.798167C13.7487 0.773768 13.6882 0.760156 13.6245 0.760156H1.5971C1.51221 0.760156 1.43311 0.784279 1.36665 0.825861ZM13.8803 0.84303L13.9357 0.906282L9.62976 4.47149L14.0336 8.59284C14.0449 8.55558 14.051 8.51615 14.051 8.47533V1.17495C14.051 1.03921 13.9839 0.918703 13.8803 0.84303ZM9.49921 4.57958L7.84461 5.94956C7.68526 6.0815 7.45101 6.0815 7.29166 5.94956L5.77397 4.69294L1.31444 8.78455L1.25575 8.72405C1.33355 8.82489 1.45749 8.89013 1.5971 8.89013H13.6245C13.7546 8.89013 13.871 8.83348 13.9493 8.74417L9.49921 4.57958ZM1 1.17495C1 0.854232 1.26733 0.594238 1.5971 0.594238H13.6245C13.9542 0.594238 14.2216 0.854232 14.2216 1.17495V8.47533C14.2216 8.79605 13.9542 9.05604 13.6245 9.05604H1.5971C1.26733 9.05604 1 8.79605 1 8.47533V1.17495Z" fill="black" stroke="black" stroke-width="0.528863"/>
</svg>
