<svg width="24" height="24" viewBox="0 0 24 24" fill="none" xmlns="http://www.w3.org/2000/svg">
<path fill-rule="evenodd" clip-rule="evenodd" d="M1.40602 5.57902C1.32892 5.68944 1.28387 5.82274 1.28387 5.96627V18.1137C1.28387 18.2185 1.30789 18.3179 1.35086 18.4068L8.72618 11.64L1.40602 5.57902ZM1.61009 5.38541L11.653 13.7008C11.8121 13.8325 12.046 13.8325 12.2051 13.7008L22.3036 5.33933C22.2132 5.29873 22.1126 5.27608 22.0065 5.27608H1.99355C1.85229 5.27608 1.72067 5.31622 1.61009 5.38541ZM22.4321 5.41398L22.5243 5.51922L15.3595 11.4515L22.6873 18.3092C22.706 18.2473 22.7161 18.1816 22.7161 18.1137V5.96627C22.7161 5.74041 22.6046 5.53989 22.4321 5.41398ZM15.1422 11.6314L12.3891 13.911C12.1239 14.1305 11.7341 14.1305 11.469 13.911L8.94363 11.82L1.52321 18.6283L1.42555 18.5276C1.55501 18.6954 1.76125 18.8039 1.99355 18.8039H22.0065C22.2229 18.8039 22.4167 18.7097 22.5469 18.5611L15.1422 11.6314ZM1 5.96627C1 5.43262 1.44483 5 1.99355 5H22.0065C22.5552 5 23 5.43262 23 5.96627V18.1137C23 18.6474 22.5552 19.08 22.0065 19.08H1.99355C1.44483 19.08 1 18.6474 1 18.1137V5.96627Z" fill="black" stroke="black"/>
</svg>
