<svg width="64" height="28" viewBox="0 0 64 28" fill="none" xmlns="http://www.w3.org/2000/svg">
<path fill-rule="evenodd" clip-rule="evenodd" d="M27.5286 25.2315C29.4782 22.9799 32.4911 19.0899 35.2132 14.7157C36.5141 12.6252 37.7566 10.4117 38.785 8.20473H40.0027L39.8092 24.8695L39.7881 26.6823L40.8179 25.1832L49.1959 12.9869V24.8758V26.6963L50.2089 25.1769L58.3066 13.0315V24.8758V26.6517L59.3154 25.1832L63 19.8193V17.8752L59.4109 23.1V11.211V10.6644H58.8588H49.7481H49.4558L49.2915 10.9036L40.9345 23.0694L41.1071 8.20473H44.3185L44.6866 7.11155H41.1198L41.1895 1.10531L40.0944 1C39.7373 2.91886 39.0175 4.99611 38.0723 7.11155H36.3581L35.806 8.20473H37.5657C36.6084 10.2017 35.4729 12.2142 34.2729 14.1424C32.0043 17.7879 29.53 21.0939 27.6616 23.367V20.1387L34.1771 11.539L34.8397 10.6644H33.7354H26.5572H26.2569L26.0937 10.9141L17.9987 23.2982V11.211V10.6644H17.4466H14.1336H13.8332L13.67 10.9141L5.57506 23.2982V11.211V10.6644H5.0229H1.7888L0.999992 11.7576H4.47073V25.1491V27L5.48648 25.4461L14.434 11.7576H16.8944V25.1491V27L17.9101 25.4461L26.5572 12.2171V19.7743V19.9565V24.6025V24.8758V26.3534L27.5286 25.2315ZM38.9809 7.11155H40.0852L40.3613 2.91308C40.1301 3.53947 39.2556 6.47741 38.9809 7.11155ZM50.3002 23.0554V11.7576H57.8328L50.3002 23.0554ZM27.6616 18.3167L32.631 11.7576H27.6616V18.3167ZM16.8944 6.40878V8.02253L17.9987 8.38692V6.87729L16.8944 6.40878Z" fill="black" stroke="black" stroke-width="0.5"/>
</svg>