<svg width="13" height="13" viewBox="0 0 13 13" fill="none" xmlns="http://www.w3.org/2000/svg">
<path d="M11.6191 9.75156C11.6191 9.94196 11.5768 10.1376 11.4869 10.328C11.397 10.5184 11.2807 10.6982 11.1273 10.8675C10.8681 11.1531 10.5826 11.3593 10.26 11.4915C9.94263 11.6237 9.59887 11.6925 9.22867 11.6925C8.68923 11.6925 8.11277 11.5656 7.50458 11.3064C6.89638 11.0473 6.28819 10.6982 5.68529 10.2593C5.0771 9.81503 4.50064 9.32319 3.95062 8.77846C3.40589 8.22844 2.91405 7.65198 2.47509 7.04908C2.04142 6.44617 1.69237 5.84327 1.43852 5.24565C1.18467 4.64275 1.05774 4.06629 1.05774 3.51627C1.05774 3.15664 1.1212 2.81288 1.24813 2.49557C1.37506 2.17296 1.57602 1.8768 1.85632 1.61237C2.19479 1.27918 2.565 1.11523 2.95636 1.11523C3.10444 1.11523 3.25252 1.14697 3.38474 1.21043C3.52224 1.27389 3.64388 1.36909 3.73907 1.50659L4.96604 3.23597C5.06123 3.36819 5.12998 3.48983 5.17758 3.60618C5.22518 3.71724 5.25162 3.8283 5.25162 3.92878C5.25162 4.05571 5.2146 4.18264 5.14056 4.30428C5.07181 4.42592 4.97132 4.55284 4.8444 4.67977L4.44246 5.09757C4.38429 5.15575 4.35784 5.2245 4.35784 5.30912C4.35784 5.35143 4.36313 5.38845 4.37371 5.43076C4.38958 5.47306 4.40544 5.5048 4.41602 5.53653C4.51121 5.71105 4.67516 5.93846 4.90786 6.21347C5.14585 6.48848 5.3997 6.76878 5.67471 7.04908C5.9603 7.32937 6.23531 7.58852 6.5156 7.8265C6.79061 8.0592 7.01802 8.21786 7.19784 8.31306C7.22428 8.32363 7.25601 8.3395 7.29303 8.35537C7.33534 8.37123 7.37765 8.37652 7.42525 8.37652C7.51515 8.37652 7.58391 8.34479 7.64208 8.28661L8.04402 7.88997C8.17623 7.75775 8.30316 7.65727 8.4248 7.5938C8.54644 7.51976 8.66808 7.48274 8.80029 7.48274C8.90077 7.48274 9.00655 7.5039 9.1229 7.5515C9.23925 7.59909 9.36089 7.66785 9.4931 7.75775L11.2436 9.00058C11.3811 9.09577 11.4763 9.20684 11.5345 9.33905C11.5874 9.47127 11.6191 9.60348 11.6191 9.75156Z" stroke="#171717" stroke-width="0.793294" stroke-miterlimit="10"/>
<path d="M9.784 4.81733C9.784 4.50001 9.53544 4.01346 9.16523 3.61681C8.82676 3.25189 8.37723 2.96631 7.93298 2.96631" stroke="#171717" stroke-width="0.793294" stroke-linecap="round" stroke-linejoin="round"/>
<path d="M11.635 4.81727C11.635 2.77058 9.97968 1.11523 7.93298 1.11523" stroke="#171717" stroke-width="0.793294" stroke-linecap="round" stroke-linejoin="round"/>
</svg>
